<?xml version="1.0" encoding="utf-8"?>
<!-- Generator: Adobe Illustrator 22.0.1, SVG Export Plug-In . SVG Version: 6.00 Build 0)  -->
<svg version="1.1" id="Layer_1" xmlns="http://www.w3.org/2000/svg" xmlns:xlink="http://www.w3.org/1999/xlink" x="0px" y="0px"
	 viewBox="0 0 256 256" style="enable-background:new 0 0 256 256;" xml:space="preserve">
<style type="text/css">
	.st0{fill:#3A312A;}
	.st1{fill:#8AC6DD;}
	.st2{fill:#F16C7A;}
	.st3{fill:#D7E057;}
	.st4{fill:#87796F;}
	.st5{fill:#FCE8CB;}
	.st6{fill:#DECAAD;}
	.st7{fill:#D6DF58;}
	.st8{fill:#FAE6CA;}
	.st9{fill:#DDC9AC;}
	.st10{fill:#D5DE58;}
	.st11{fill:#ED6E7A;}
	.st12{fill:#8AC5DC;}
	.st13{fill:#6CA8BF;}
	.st14{fill:#695B51;}
	.st15{fill:#F8E4C8;}
	.st16{fill:#EF6D7A;}
	.st17{fill-rule:evenodd;clip-rule:evenodd;fill:#F8E4C8;}
	.st18{fill:#89C4DB;}
	.st19{fill:#F59689;}
	.st20{fill:#D34E5C;}
	.st21{fill:#F7E3C7;}
	.st22{fill:#8AC3DA;}
	.st23{fill-rule:evenodd;clip-rule:evenodd;fill:#F7E3C7;}
	.st24{fill-rule:evenodd;clip-rule:evenodd;fill:#87796F;}
	.st25{fill:#B9C239;}
	.st26{fill:#D4DB56;}
	.st27{fill-rule:evenodd;clip-rule:evenodd;fill:#F16C7A;}
	.st28{fill-rule:evenodd;clip-rule:evenodd;fill:#F6E2C6;}
	.st29{fill:#F6E2C6;}
	.st30{fill-rule:evenodd;clip-rule:evenodd;fill:#FAE6CA;}
	.st31{fill:#B8C136;}
</style>
<g>
	<g>
		<g>
			<path class="st3" d="M223.213,26.131c-0.974,11.564-13.024,13.39-13.024,13.39c10.347,0.487,12.925,14.059,12.925,14.059
				c0.221-9.677,13.321-14.202,13.321-14.202C226.621,38.79,223.213,26.131,223.213,26.131z"/>
		</g>
	</g>
	<g>
		<g>
			<path class="st0" d="M236.525,37.88c-8.606-0.515-11.833-12.024-11.864-12.141c-0.19-0.702-0.851-1.159-1.584-1.102
				c-0.725,0.066-1.298,0.642-1.359,1.367c-0.859,10.215-11.313,11.964-11.754,12.033c-0.763,0.115-1.313,0.79-1.273,1.56
				c0.04,0.77,0.657,1.384,1.428,1.421c9.028,0.425,11.499,12.718,11.522,12.842c0.138,0.711,0.76,1.217,1.473,1.217
				c0.042,0,0.084-0.002,0.126-0.005c0.765-0.064,1.357-0.693,1.375-1.459c0.193-8.508,12.191-12.777,12.313-12.819
				c0.676-0.235,1.092-0.914,0.994-1.622C237.823,38.464,237.239,37.923,236.525,37.88z M222.959,48.226
				c-1.357-3.131-3.709-6.908-7.587-8.877c2.931-1.405,6.408-3.913,8.201-8.272c1.551,3.071,4.2,6.88,8.335,8.722
				C228.9,41.439,224.985,44.204,222.959,48.226z"/>
		</g>
	</g>
	<g>
		<g>
			<path class="st3" d="M201.514,43.112c-0.689,8.179-9.212,9.47-9.212,9.47c7.318,0.344,9.142,9.944,9.142,9.944
				c0.156-6.844,9.422-10.045,9.422-10.045C203.925,52.066,201.514,43.112,201.514,43.112z"/>
		</g>
	</g>
	<g>
		<g>
			<path class="st0" d="M210.956,50.983c-5.767-0.345-7.972-8.185-7.993-8.265c-0.19-0.702-0.86-1.161-1.582-1.102
				c-0.726,0.065-1.3,0.642-1.361,1.368c-0.579,6.871-7.646,8.067-7.942,8.114c-0.763,0.115-1.313,0.79-1.273,1.561
				c0.04,0.77,0.657,1.384,1.428,1.421c6.035,0.284,7.724,8.644,7.739,8.726c0.136,0.713,0.759,1.22,1.473,1.22
				c0.041,0,0.083-0.001,0.125-0.005c0.765-0.063,1.358-0.694,1.376-1.461c0.13-5.709,8.331-8.634,8.412-8.662
				c0.676-0.234,1.093-0.913,0.996-1.622C212.255,51.568,211.67,51.026,210.956,50.983z M201.371,57.778
				c-0.924-1.885-2.34-3.947-4.447-5.28c1.856-1.041,3.697-2.63,4.871-4.917c1.057,1.874,2.654,3.955,4.941,5.224
				C204.887,53.907,202.747,55.546,201.371,57.778z"/>
		</g>
	</g>
	<g>
		<g>
			<path class="st3" d="M201.514,16.454c-0.689,8.179-9.212,9.471-9.212,9.471c7.318,0.344,9.142,9.944,9.142,9.944
				c0.156-6.845,9.422-10.045,9.422-10.045C203.925,25.408,201.514,16.454,201.514,16.454z"/>
		</g>
	</g>
	<g>
		<g>
			<path class="st0" d="M210.956,24.326c-5.767-0.345-7.972-8.186-7.993-8.265c-0.19-0.702-0.86-1.161-1.582-1.102
				c-0.726,0.065-1.3,0.642-1.361,1.368c-0.579,6.871-7.646,8.067-7.942,8.114c-0.763,0.115-1.313,0.79-1.273,1.56
				c0.04,0.77,0.657,1.384,1.428,1.421c6.035,0.284,7.724,8.644,7.739,8.726c0.136,0.713,0.759,1.22,1.473,1.22
				c0.041,0,0.083-0.001,0.125-0.005c0.765-0.064,1.358-0.694,1.376-1.461c0.13-5.71,8.331-8.634,8.412-8.662
				c0.676-0.234,1.093-0.913,0.996-1.622C212.255,24.911,211.67,24.369,210.956,24.326z M201.371,31.121
				c-0.924-1.885-2.34-3.947-4.447-5.28c1.856-1.041,3.697-2.63,4.871-4.917c1.057,1.874,2.654,3.955,4.941,5.224
				C204.887,27.25,202.747,28.889,201.371,31.121z"/>
		</g>
	</g>
	<g>
		<g>
			<path class="st2" d="M173.631,36.88c-0.109-11.326-9.318-20.453-20.645-20.459L34.103,16.36
				c-11.413-0.006-20.668,9.244-20.668,20.657v158.966c0,11.409,9.248,20.657,20.657,20.657h119.186
				c11.408,0,20.657-9.249,20.657-20.657V68.485L173.631,36.88z"/>
		</g>
	</g>
	<g>
		<g>
			<path class="st0" d="M175.132,36.866c-0.117-12.094-10.051-21.938-22.144-21.944L34.104,14.86h-0.012
				c-5.916,0-11.479,2.303-15.663,6.485c-4.188,4.186-6.494,9.751-6.494,15.672v38.958c0,0.829,0.671,1.5,1.5,1.5
				c0.829,0,1.5-0.671,1.5-1.5V37.017c0-5.119,1.994-9.931,5.614-13.55c3.619-3.616,8.427-5.607,13.543-5.607h0.01l118.883,0.062
				c10.457,0.005,19.046,8.517,19.146,18.973l0.304,31.59v127.498c0,10.563-8.594,19.157-19.157,19.157H34.092
				c-10.563,0-19.157-8.594-19.157-19.157V89.224c0-0.829-0.671-1.5-1.5-1.5c-0.829,0-1.5,0.671-1.5,1.5v106.759
				c0,12.218,9.939,22.157,22.157,22.157h119.186c12.218,0,22.157-9.939,22.157-22.157V68.471L175.132,36.866z"/>
		</g>
	</g>
	<g>
		<g>
			<path class="st21" d="M144.799,39.349h-87.51c-11.525,0-20.854,9.328-20.854,20.854v158.583c0,11.526,9.329,20.854,20.854,20.854
				h118.792c11.526,0,20.854-9.328,20.854-20.854V91.485L144.799,39.349z"/>
		</g>
	</g>
	<g>
		<g>
			<path class="st0" d="M197.996,90.424L145.86,38.289c-0.281-0.281-0.663-0.439-1.061-0.439H57.289
				c-12.326,0-22.354,10.028-22.354,22.354v158.582c0,12.326,10.028,22.354,22.354,22.354h55.774c0.829,0,1.5-0.671,1.5-1.5
				c0-0.829-0.671-1.5-1.5-1.5H57.289c-10.672,0-19.354-8.682-19.354-19.354V60.204c0-10.672,8.682-19.354,19.354-19.354h86.89
				l51.257,51.257v126.68c0,10.672-8.683,19.354-19.354,19.354h-50.275c-0.829,0-1.5,0.671-1.5,1.5c0,0.829,0.671,1.5,1.5,1.5
				h50.275c12.326,0,22.354-10.028,22.354-22.354V91.485C198.435,91.087,198.277,90.706,197.996,90.424z"/>
		</g>
	</g>
	<g>
		<g>
			<path class="st0" d="M167.441,103.433H65.929c-0.829,0-1.5,0.671-1.5,1.5c0,0.829,0.671,1.5,1.5,1.5h101.513
				c0.828,0,1.5-0.671,1.5-1.5C168.941,104.104,168.269,103.433,167.441,103.433z"/>
		</g>
	</g>
	<g>
		<g>
			<path class="st0" d="M167.441,128.319H65.929c-0.829,0-1.5,0.671-1.5,1.5s0.671,1.5,1.5,1.5h101.513c0.828,0,1.5-0.671,1.5-1.5
				S168.269,128.319,167.441,128.319z"/>
		</g>
	</g>
	<g>
		<g>
			<path class="st0" d="M167.441,153.206H65.929c-0.829,0-1.5,0.671-1.5,1.5c0,0.829,0.671,1.5,1.5,1.5h101.513
				c0.828,0,1.5-0.671,1.5-1.5C168.941,153.877,168.269,153.206,167.441,153.206z"/>
		</g>
	</g>
	<g>
		<g>
			<path class="st0" d="M167.441,178.092H65.929c-0.829,0-1.5,0.671-1.5,1.5s0.671,1.5,1.5,1.5h101.513c0.828,0,1.5-0.671,1.5-1.5
				S168.269,178.092,167.441,178.092z"/>
		</g>
	</g>
	<g>
		<g>
			<path class="st0" d="M167.441,202.979H65.929c-0.829,0-1.5,0.671-1.5,1.5c0,0.829,0.671,1.5,1.5,1.5h101.513
				c0.828,0,1.5-0.671,1.5-1.5C168.941,203.65,168.269,202.979,167.441,202.979z"/>
		</g>
	</g>
	<g>
		<g>
			<path class="st21" d="M144.907,39.457v33.797c0,10.14,8.22,18.36,18.36,18.36h33.668v-0.129L144.907,39.457z"/>
		</g>
	</g>
	<g>
		<g>
			<path class="st0" d="M197.996,90.424l-52.028-52.028c-0.43-0.429-1.074-0.557-1.635-0.325c-0.561,0.232-0.926,0.779-0.926,1.386
				v33.797c0,10.951,8.909,19.86,19.86,19.86h33.668c0.828,0,1.5-0.671,1.5-1.5v-0.129
				C198.435,91.087,198.277,90.706,197.996,90.424z M163.268,90.114c-9.297,0-16.86-7.563-16.86-16.86V43.078l47.036,47.036H163.268
				z"/>
		</g>
	</g>
	<g>
		<g>
			<path class="st1" d="M125.436,67.246H71.04c-2.823,0-5.112,2.289-5.112,5.112v5.931c0,2.823,2.289,5.112,5.112,5.112h54.396
				c2.823,0,5.112-2.289,5.112-5.112v-5.931C130.548,69.535,128.26,67.246,125.436,67.246z"/>
		</g>
	</g>
	<g>
		<g>
			<path class="st0" d="M125.436,65.746H71.04c-3.646,0-6.612,2.966-6.612,6.612v5.931c0,3.646,2.966,6.612,6.612,6.612h54.396
				c3.646,0,6.611-2.966,6.611-6.612v-5.931C132.048,68.712,129.082,65.746,125.436,65.746z M129.048,78.289
				c0,1.992-1.62,3.612-3.611,3.612H71.04c-1.992,0-3.612-1.621-3.612-3.612v-5.931c0-1.992,1.62-3.612,3.612-3.612h54.396
				c1.991,0,3.611,1.621,3.611,3.612V78.289z"/>
		</g>
	</g>
	<g>
		<g>
			<path class="st20" d="M172.135,36.893c-0.1-10.45-8.69-18.96-19.15-18.97h-15c10.46,0.01,19.05,8.52,19.15,18.97l0.12,12.79
				l15.14,15.15L172.135,36.893z"/>
		</g>
	</g>
	<g>
		<g>
			<circle class="st3" cx="193.935" cy="197.14" r="42.5"/>
		</g>
	</g>
	<g>
		<g>
			<path class="st0" d="M193.935,153.14c-24.262,0-44,19.738-44,44c0,24.262,19.738,44,44,44c24.262,0,44-19.738,44-44
				C237.935,172.878,218.197,153.14,193.935,153.14z M193.935,238.14c-22.607,0-41-18.393-41-41c0-22.607,18.393-41,41-41
				c22.608,0,41,18.393,41,41C234.935,219.748,216.543,238.14,193.935,238.14z"/>
		</g>
	</g>
	<g>
		<g>
			<path class="st2" d="M204.849,190.408h-21.827c-2.804,0-5.077,2.273-5.077,5.077v21.827c0,2.804,2.273,5.077,5.077,5.077h21.827
				c2.804,0,5.077-2.273,5.077-5.077v-21.827C209.926,192.681,207.653,190.408,204.849,190.408z"/>
		</g>
	</g>
	<g>
		<g>
			<path class="st0" d="M204.849,188.908h-21.827c-3.627,0-6.577,2.951-6.577,6.578v21.827c0,3.627,2.95,6.577,6.577,6.577h21.827
				c3.627,0,6.577-2.951,6.577-6.577v-21.827C211.426,191.859,208.476,188.908,204.849,188.908z M208.426,217.313
				c0,1.973-1.604,3.577-3.577,3.577h-21.827c-1.973,0-3.577-1.604-3.577-3.577v-21.827c0-1.973,1.604-3.578,3.577-3.578h21.827
				c1.973,0,3.577,1.605,3.577,3.578V217.313z"/>
		</g>
	</g>
	<g>
		<g>
			<path class="st0" d="M193.935,166.39c-7.036,0-12.76,5.724-12.76,12.759v11.259c0,0.829,0.672,1.5,1.5,1.5s1.5-0.671,1.5-1.5
				v-11.259c0-5.381,4.378-9.759,9.76-9.759c5.381,0,9.759,4.378,9.759,9.759v11.259c0,0.829,0.672,1.5,1.5,1.5
				c0.828,0,1.5-0.671,1.5-1.5v-11.259C206.694,172.114,200.971,166.39,193.935,166.39z"/>
		</g>
	</g>
	<g>
		<g>
			<path class="st0" d="M193.935,197.529c-2.695,0-4.88,2.185-4.88,4.88c0,1.943,1.144,3.607,2.788,4.392v6.413
				c0,1.155,0.936,2.091,2.091,2.091c1.155,0,2.091-0.936,2.091-2.091V206.8c1.644-0.785,2.788-2.449,2.788-4.392
				C198.815,199.714,196.63,197.529,193.935,197.529z"/>
		</g>
	</g>
	<g>
		<g>
			<path class="st4" d="M211.832,157.291l7.986-21.829h-0.017c0.309-0.997,0.475-2.056,0.475-3.154
				c0-5.882-4.769-10.651-10.651-10.651c-5.882,0-10.651,4.769-10.651,10.651c0-5.882-4.769-10.651-10.651-10.651
				c-5.882,0-10.651,4.769-10.651,10.651c0-5.882-4.769-10.651-10.651-10.651c-5.882,0-10.651,4.769-10.651,10.651
				c0,1.098,0.167,2.157,0.475,3.154h-0.017l7.986,21.829c-18.184,8.758-30.733,27.362-30.733,48.896
				c0,29.957,24.285,33.296,54.241,33.296c29.957,0,54.241-3.339,54.241-33.296C242.565,184.652,230.016,166.049,211.832,157.291z"
				/>
		</g>
	</g>
	<g>
		<g>
			<path class="st0" d="M213.702,156.545l7.524-20.567c0.036-0.098,0.062-0.199,0.075-0.3c0.315-1.093,0.475-2.226,0.475-3.37
				c0-6.7-5.451-12.151-12.151-12.151c-4.583,0-8.581,2.551-10.65,6.307c-2.069-3.756-6.068-6.307-10.651-6.307
				c-4.583,0-8.581,2.551-10.65,6.307c-2.069-3.756-6.068-6.307-10.651-6.307c-6.7,0-12.15,5.451-12.15,12.151
				c0,1.142,0.159,2.272,0.473,3.363c0.015,0.104,0.04,0.206,0.077,0.307l7.524,20.567c-18.489,9.478-30.363,28.813-30.363,49.642
				c0,32.109,27.537,34.795,55.741,34.795s55.741-2.686,55.741-34.795C244.064,185.358,232.19,166.023,213.702,156.545z
				 M188.323,237.982c-33.403,0-52.741-5.203-52.741-31.795c0-20.138,11.731-38.8,29.885-47.544
				c0.694-0.335,1.022-1.143,0.757-1.867l-7.907-21.614c-0.01-0.048-0.023-0.095-0.037-0.142c-0.271-0.876-0.408-1.788-0.408-2.711
				c0-5.046,4.104-9.151,9.15-9.151s9.151,4.105,9.151,9.151c0,0.829,0.672,1.5,1.5,1.5c0.828,0,1.5-0.671,1.5-1.5
				c0-5.046,4.104-9.151,9.15-9.151s9.151,4.105,9.151,9.151c0,0.829,0.672,1.5,1.5,1.5c0.828,0,1.5-0.671,1.5-1.5
				c0-5.046,4.104-9.151,9.15-9.151s9.151,4.105,9.151,9.151c0,0.923-0.138,1.835-0.408,2.711c-0.015,0.046-0.026,0.093-0.036,0.141
				l-7.908,21.616c-0.266,0.725,0.063,1.532,0.757,1.867c18.154,8.744,29.884,27.406,29.884,47.544
				C241.064,232.78,221.727,237.982,188.323,237.982z"/>
		</g>
	</g>
	<g>
		<g>
			
				<ellipse transform="matrix(0.7071 -0.7071 0.7071 0.7071 -84.4689 191.0005)" class="st3" cx="188.324" cy="197.463" rx="25.296" ry="25.296"/>
		</g>
	</g>
	<g>
		<g>
			<path class="st0" d="M188.323,170.667c-14.775,0-26.796,12.021-26.796,26.796s12.021,26.796,26.796,26.796
				c14.775,0,26.796-12.021,26.796-26.796S203.099,170.667,188.323,170.667z M188.323,221.259
				c-13.121,0-23.796-10.675-23.796-23.796s10.675-23.796,23.796-23.796s23.796,10.675,23.796,23.796
				S201.444,221.259,188.323,221.259z"/>
		</g>
	</g>
	<g>
		<g>
			<path class="st4" d="M191.331,194.603c-3.684-1.386-5.201-2.297-5.201-3.727c0-1.213,0.91-2.427,3.728-2.427
				c3.12,0,5.114,0.997,6.241,1.474l1.257-4.897c-1.431-0.694-3.381-1.301-6.285-1.431v-3.814h-4.247v4.117
				c-4.638,0.91-7.325,3.901-7.325,7.715c0,4.205,3.164,6.372,7.802,7.932c3.207,1.083,4.594,2.124,4.594,3.77
				c0,1.734-1.691,2.688-4.161,2.688c-2.817,0-5.374-0.91-7.195-1.907l-1.3,5.071c1.647,0.953,4.464,1.733,7.368,1.864v4.117h4.248
				v-4.421c4.984-0.866,7.715-4.16,7.715-8.018C198.569,198.807,196.488,196.423,191.331,194.603z"/>
		</g>
	</g>
	<g>
		<g>
			<path class="st0" d="M191.859,193.199c-2.807-1.056-4.229-1.838-4.229-2.323c0-0.837,1.558-0.927,2.227-0.927
				c2.535,0,4.215,0.73,5.327,1.213l0.329,0.142c0.403,0.17,0.86,0.156,1.25-0.037c0.392-0.193,0.68-0.548,0.788-0.971l1.257-4.897
				c0.177-0.691-0.156-1.412-0.799-1.723c-1.588-0.77-3.377-1.256-5.438-1.474v-2.422c0-0.829-0.672-1.5-1.5-1.5h-4.248
				c-0.828,0-1.5,0.671-1.5,1.5v2.937c-4.551,1.306-7.324,4.629-7.324,8.896c0,5.659,4.715,7.971,8.82,9.352
				c3.575,1.208,3.575,2.008,3.575,2.35c0,1.154-2.389,1.188-2.661,1.188c-2.896,0-5.299-1.079-6.474-1.723
				c-0.405-0.221-0.893-0.245-1.317-0.06c-0.426,0.184-0.741,0.555-0.857,1.003l-1.301,5.071c-0.167,0.651,0.12,1.334,0.702,1.671
				c1.654,0.957,4.1,1.668,6.619,1.951v2.732c0,0.829,0.672,1.5,1.5,1.5h4.248c0.828,0,1.5-0.671,1.5-1.5v-3.216
				c4.729-1.264,7.715-4.778,7.715-9.223C200.069,198.136,197.528,195.2,191.859,193.199z M190.598,209.248
				c-0.719,0.125-1.243,0.749-1.243,1.478v2.921h-1.248v-2.617c0-0.802-0.631-1.462-1.433-1.499
				c-2.026-0.091-4.128-0.534-5.68-1.175l0.546-2.126c1.569,0.645,3.729,1.272,6.193,1.272c3.439,0,5.661-1.644,5.661-4.188
				c0-2.896-2.698-4.207-5.616-5.192c-4.815-1.62-6.779-3.506-6.779-6.51c0-3.158,2.285-5.492,6.113-6.244
				c0.703-0.138,1.211-0.754,1.211-1.472v-2.617h1.248v2.314c0,0.802,0.632,1.463,1.434,1.499c1.747,0.078,3.256,0.346,4.575,0.814
				l-0.505,1.969c-1.256-0.464-2.97-0.928-5.218-0.928c-3.854,0-5.227,2.029-5.227,3.927c0,2.601,2.676,3.815,6.202,5.142
				c5.177,1.828,6.237,3.997,6.237,6.691C197.069,206.048,194.59,208.554,190.598,209.248z"/>
		</g>
	</g>
	<g>
		<g>
			<path class="st2" d="M215.616,149.616h-53.92c-2.757,0-4.993,2.235-4.993,4.993c0,2.757,2.235,4.993,4.993,4.993h53.92
				c2.757,0,4.993-2.235,4.993-4.993C220.609,151.851,218.374,149.616,215.616,149.616z"/>
		</g>
	</g>
	<g>
		<g>
			<path class="st0" d="M215.616,148.116h-53.92c-3.58,0-6.492,2.913-6.492,6.493c0,3.58,2.912,6.493,6.492,6.493h53.92
				c3.58,0,6.493-2.913,6.493-6.493C222.109,151.028,219.196,148.116,215.616,148.116z M215.616,158.101h-53.92
				c-1.926,0-3.492-1.567-3.492-3.493c0-1.926,1.566-3.493,3.492-3.493h53.92c1.926,0,3.493,1.567,3.493,3.493
				C219.109,156.534,217.542,158.101,215.616,158.101z"/>
		</g>
	</g>
	<g>
		<g>
			<path class="st6" d="M179.435,93.115v30.92c2.22-2.39,5.38-3.88,8.89-3.88c2.65,0,5.11,0.86,7.11,2.31v-29.35H179.435z"/>
		</g>
	</g>
</g>
</svg>
