<?xml version="1.0" encoding="utf-8"?>
<!-- Generator: Adobe Illustrator 22.0.1, SVG Export Plug-In . SVG Version: 6.00 Build 0)  -->
<svg version="1.1" id="Layer_1" xmlns="http://www.w3.org/2000/svg" xmlns:xlink="http://www.w3.org/1999/xlink" x="0px" y="0px"
	 viewBox="0 0 256 256" style="enable-background:new 0 0 256 256;" xml:space="preserve">
<style type="text/css">
	.st0{fill:#3A312A;}
	.st1{fill:#8AC6DD;}
	.st2{fill:#F16C7A;}
	.st3{fill:#D7E057;}
	.st4{fill:#87796F;}
	.st5{fill:#FCE8CB;}
	.st6{fill:#DECAAD;}
	.st7{fill:#D6DF58;}
	.st8{fill:#FAE6CA;}
	.st9{fill:#DDC9AC;}
	.st10{fill:#D5DE58;}
	.st11{fill:#ED6E7A;}
	.st12{fill:#8AC5DC;}
	.st13{fill:#6CA8BF;}
	.st14{fill:#695B51;}
	.st15{fill:#F8E4C8;}
	.st16{fill:#EF6D7A;}
	.st17{fill-rule:evenodd;clip-rule:evenodd;fill:#F8E4C8;}
	.st18{fill:#89C4DB;}
	.st19{fill:#F59689;}
	.st20{fill:#D34E5C;}
	.st21{fill:#F7E3C7;}
	.st22{fill:#8AC3DA;}
	.st23{fill-rule:evenodd;clip-rule:evenodd;fill:#F7E3C7;}
	.st24{fill-rule:evenodd;clip-rule:evenodd;fill:#87796F;}
	.st25{fill:#B9C239;}
	.st26{fill:#D4DB56;}
	.st27{fill-rule:evenodd;clip-rule:evenodd;fill:#F16C7A;}
	.st28{fill-rule:evenodd;clip-rule:evenodd;fill:#F6E2C6;}
	.st29{fill:#F6E2C6;}
	.st30{fill-rule:evenodd;clip-rule:evenodd;fill:#FAE6CA;}
	.st31{fill:#B8C136;}
</style>
<g>
	<g>
		<g>
			<path class="st7" d="M47.946,174.224c-0.974,11.564-13.024,13.39-13.024,13.39c10.347,0.487,12.925,14.059,12.925,14.059
				c0.221-9.677,13.321-14.202,13.321-14.202C51.355,186.884,47.946,174.224,47.946,174.224z"/>
		</g>
	</g>
	<g>
		<g>
			<path class="st0" d="M61.257,185.973c-8.604-0.514-11.831-12.024-11.863-12.14c-0.191-0.703-0.86-1.162-1.584-1.102
				c-0.725,0.067-1.298,0.642-1.359,1.367c-0.86,10.215-11.313,11.964-11.754,12.033c-0.763,0.115-1.314,0.79-1.273,1.561
				c0.04,0.77,0.657,1.384,1.428,1.421c9.028,0.425,11.498,12.718,11.522,12.842c0.137,0.711,0.759,1.217,1.472,1.217
				c0.042,0,0.084-0.001,0.126-0.005c0.764-0.064,1.357-0.693,1.375-1.46c0.194-8.509,12.191-12.777,12.313-12.819
				c0.675-0.235,1.092-0.915,0.994-1.623C62.555,186.557,61.971,186.016,61.257,185.973z M47.692,196.319
				c-1.357-3.13-3.709-6.907-7.587-8.876c2.931-1.405,6.409-3.913,8.202-8.273c1.551,3.071,4.2,6.88,8.334,8.722
				C53.633,189.532,49.718,192.297,47.692,196.319z"/>
		</g>
	</g>
	<g>
		<g>
			<path class="st7" d="M26.248,191.205c-0.689,8.179-9.212,9.471-9.212,9.471c7.318,0.344,9.142,9.944,9.142,9.944
				c0.156-6.844,9.422-10.045,9.422-10.045C28.658,200.159,26.248,191.205,26.248,191.205z"/>
		</g>
	</g>
	<g>
		<g>
			<path class="st0" d="M35.69,199.077c-5.767-0.345-7.973-8.185-7.994-8.265c-0.19-0.702-0.854-1.167-1.582-1.102
				c-0.726,0.065-1.299,0.642-1.36,1.368c-0.579,6.871-7.646,8.066-7.942,8.113c-0.763,0.115-1.313,0.79-1.273,1.56
				c0.04,0.77,0.657,1.384,1.427,1.421c6.036,0.284,7.724,8.644,7.739,8.726c0.135,0.713,0.759,1.22,1.472,1.22
				c0.041,0,0.083-0.001,0.125-0.005c0.765-0.063,1.358-0.694,1.376-1.461c0.13-5.709,8.331-8.633,8.413-8.661
				c0.676-0.234,1.094-0.913,0.996-1.622C36.988,199.662,36.404,199.12,35.69,199.077z M26.104,205.872
				c-0.924-1.886-2.34-3.947-4.447-5.28c1.856-1.042,3.697-2.63,4.871-4.917c1.057,1.874,2.655,3.955,4.941,5.224
				C29.62,202,27.481,203.64,26.104,205.872z"/>
		</g>
	</g>
	<g>
		<g>
			<path class="st7" d="M26.21,164.548c-0.657,8.182-9.175,9.507-9.175,9.507c7.319,0.316,9.181,9.909,9.181,9.909
				c0.129-6.845,9.383-10.082,9.383-10.082C28.655,173.492,26.21,164.548,26.21,164.548z"/>
		</g>
	</g>
	<g>
		<g>
			<path class="st0" d="M35.682,172.383c-5.747-0.322-7.988-8.098-8.026-8.232c-0.192-0.702-0.859-1.164-1.586-1.097
				c-0.725,0.068-1.297,0.647-1.355,1.373c-0.552,6.873-7.615,8.096-7.911,8.144c-0.762,0.119-1.31,0.796-1.267,1.566
				c0.042,0.77,0.663,1.382,1.433,1.415c6.036,0.261,7.757,8.614,7.773,8.696c0.138,0.711,0.76,1.214,1.471,1.214
				c0.043,0,0.087-0.002,0.131-0.005c0.765-0.066,1.356-0.699,1.37-1.466c0.108-5.71,8.298-8.666,8.378-8.694
				c0.676-0.236,1.09-0.917,0.99-1.626C36.983,172.962,36.397,172.423,35.682,172.383z M26.124,179.215
				c-0.932-1.882-2.356-3.938-4.468-5.263c1.852-1.048,3.687-2.644,4.851-4.935c1.065,1.87,2.67,3.944,4.962,5.205
				C29.624,175.33,27.491,176.978,26.124,179.215z"/>
		</g>
	</g>
	<g>
		<g>
			<path class="st15" d="M31.5,46.476c-2.33,0-4.53-0.53-6.5-1.48v48.87c3.53-3.69,7.99-6.49,13-8.04v-40.83
				C36.03,45.946,33.83,46.476,31.5,46.476z"/>
		</g>
	</g>
	<g>
		<g>
			<path class="st0" d="M38.798,43.727c-0.438-0.275-0.985-0.305-1.449-0.081c-3.663,1.766-8.034,1.766-11.697,0
				c-0.464-0.224-1.012-0.194-1.449,0.081c-0.437,0.274-0.702,0.754-0.702,1.27v16.216c0,0.829,0.671,1.5,1.5,1.5s1.5-0.671,1.5-1.5
				V47.206c3.212,1.023,6.788,1.023,10,0v37.535c-3.647,1.271-7.042,3.199-10,5.672V75.407c0-0.829-0.671-1.5-1.5-1.5
				s-1.5,0.671-1.5,1.5v18.459c0,0.613,0.373,1.164,0.941,1.392c0.181,0.073,0.371,0.108,0.558,0.108
				c0.402,0,0.796-0.162,1.085-0.463c3.395-3.549,7.669-6.193,12.359-7.644c0.628-0.194,1.057-0.775,1.057-1.433v-40.83
				C39.5,44.481,39.235,44.001,38.798,43.727z"/>
		</g>
	</g>
	<g>
		<g>
			<circle class="st2" cx="31.5" cy="31.476" r="15"/>
		</g>
	</g>
	<g>
		<g>
			<path class="st0" d="M31.5,14.976c-9.098,0-16.5,7.402-16.5,16.5s7.402,16.5,16.5,16.5c9.098,0,16.5-7.402,16.5-16.5
				S40.598,14.976,31.5,14.976z M31.5,44.976c-7.444,0-13.5-6.056-13.5-13.5s6.056-13.5,13.5-13.5S45,24.032,45,31.476
				S38.944,44.976,31.5,44.976z"/>
		</g>
	</g>
	<g>
		<g>
			<path class="st15" d="M224.5,46.476c-2.33,0-4.53-0.53-6.5-1.48v40.83c5.01,1.55,9.47,4.35,13,8.04v-48.87
				C229.03,45.946,226.83,46.476,224.5,46.476z"/>
		</g>
	</g>
	<g>
		<g>
			<path class="st0" d="M231.798,43.727c-0.438-0.275-0.985-0.305-1.449-0.081c-3.663,1.766-8.034,1.766-11.697,0
				c-0.464-0.224-1.012-0.194-1.449,0.081c-0.437,0.274-0.702,0.754-0.702,1.27v40.83c0,0.658,0.428,1.239,1.057,1.433
				c4.69,1.451,8.964,4.095,12.359,7.644c0.289,0.302,0.683,0.463,1.084,0.463c0.188,0,0.377-0.035,0.558-0.108
				c0.569-0.228,0.941-0.779,0.941-1.392v-48.87C232.5,44.481,232.235,44.001,231.798,43.727z M229.5,90.413
				c-2.958-2.473-6.353-4.402-10-5.672V47.206c3.212,1.023,6.788,1.023,10,0V90.413z"/>
		</g>
	</g>
	<g>
		<g>
			<circle class="st2" cx="224.5" cy="31.476" r="15"/>
		</g>
	</g>
	<g>
		<g>
			<path class="st0" d="M224.5,14.976c-9.098,0-16.5,7.402-16.5,16.5s7.402,16.5,16.5,16.5s16.5-7.402,16.5-16.5
				S233.598,14.976,224.5,14.976z M224.5,44.976c-7.444,0-13.5-6.056-13.5-13.5s6.056-13.5,13.5-13.5s13.5,6.056,13.5,13.5
				S231.944,44.976,224.5,44.976z"/>
		</g>
	</g>
	<g>
		<g>
			<path class="st15" d="M47,84.476c-16.84,0-30.5,13.66-30.5,30.5c0,16.84,13.66,30.5,30.5,30.5c1.06,0,2.11-0.05,3.15-0.16v-60.68
				C49.11,84.526,48.06,84.476,47,84.476z"/>
		</g>
	</g>
	<g>
		<g>
			<path class="st0" d="M50.308,83.144c-1.058-0.112-2.171-0.168-3.308-0.168c-17.645,0-32,14.355-32,32s14.355,32,32,32
				c1.14,0,2.252-0.057,3.308-0.168c0.763-0.081,1.342-0.724,1.342-1.492v-60.68C51.65,83.869,51.071,83.225,50.308,83.144z
				 M48.65,143.932c-0.539,0.029-1.09,0.044-1.65,0.044c-15.991,0-29-13.009-29-29c0-15.991,13.009-29,29-29
				c0.559,0,1.11,0.015,1.65,0.045V143.932z"/>
		</g>
	</g>
	<g>
		<g>
			<path class="st15" d="M209,84.476c-0.72,0-1.44,0.03-2.15,0.08v60.84c0.71,0.05,1.43,0.08,2.15,0.08
				c16.84,0,30.5-13.66,30.5-30.5C239.5,98.136,225.84,84.476,209,84.476z"/>
		</g>
	</g>
	<g>
		<g>
			<path class="st0" d="M209,82.976c-0.714,0-1.452,0.027-2.255,0.084c-0.786,0.055-1.395,0.708-1.395,1.496v60.84
				c0,0.788,0.609,1.441,1.395,1.496c0.788,0.056,1.546,0.083,2.255,0.083c17.645,0,32-14.355,32-32S226.645,82.976,209,82.976z
				 M209,143.976c-0.211,0-0.428-0.003-0.65-0.008V85.984c0.22-0.005,0.437-0.008,0.65-0.008c15.991,0,29,13.009,29,29
				C238,130.967,224.991,143.976,209,143.976z"/>
		</g>
	</g>
	<g>
		<g>
			<path class="st15" d="M164.653,182.061h-19.915v-30.943c-5.508,3.819-11.208,6.072-16.738,6.072
				c-5.305,0-10.904-2.275-16.389-6.139l-0.338,18v13.01H91.346c-16.648,0-30.142,13.494-30.142,30.142v27.315h133.591v-27.315
				C194.795,195.555,181.301,182.061,164.653,182.061z"/>
		</g>
	</g>
	<g>
		<g>
			<path class="st0" d="M164.653,180.561h-18.414v-29.443c0-0.558-0.31-1.07-0.804-1.329c-0.494-0.258-1.093-0.222-1.55,0.096
				c-5.556,3.852-10.9,5.805-15.884,5.805c-4.777,0-10-1.974-15.525-5.866c-0.453-0.32-1.046-0.362-1.542-0.112
				c-0.495,0.251-0.811,0.755-0.821,1.31l-0.338,18.028v11.51H91.346c-17.448,0-31.642,14.195-31.642,31.643v27.315
				c0,0.829,0.671,1.5,1.5,1.5h133.591c0.829,0,1.5-0.671,1.5-1.5v-27.315C196.295,194.756,182.101,180.561,164.653,180.561z
				 M193.295,238.019H62.704v-25.815c0-15.793,12.849-28.643,28.642-28.643h19.927c0.829,0,1.5-0.671,1.5-1.5l0-12.982l0.287-15.268
				c5.211,3.24,10.227,4.879,14.941,4.879c4.879,0,9.994-1.615,15.238-4.807v28.177c0,0.829,0.671,1.5,1.5,1.5h19.914
				c15.794,0,28.643,12.849,28.643,28.643V238.019z"/>
		</g>
	</g>
	<g>
		<g>
			<path class="st18" d="M164.652,182.048h-4.763l0.121,0.097l-20.714,27.465l-10.69-8.048l-10.69,8.048l-20.714-27.465l0.121-0.097
				h-5.975c-16.654,0-30.143,13.502-30.143,30.143v27.332h133.591v-27.332C194.796,195.551,181.306,182.048,164.652,182.048z"/>
		</g>
	</g>
	<g>
		<g>
			<path class="st0" d="M164.652,180.548h-4.763c-0.636,0-1.203,0.401-1.415,1.001c-0.025,0.072-0.045,0.146-0.059,0.219
				l-19.415,25.742l-9.493-7.146c-0.534-0.402-1.271-0.402-1.805,0l-9.493,7.146l-19.414-25.742
				c-0.014-0.073-0.033-0.146-0.059-0.218c-0.211-0.601-0.778-1.003-1.415-1.003h-5.976c-17.448,0-31.643,14.195-31.643,31.644
				v27.332c0,0.829,0.671,1.5,1.5,1.5h133.591c0.829,0,1.5-0.671,1.5-1.5v-27.332C196.296,194.744,182.101,180.548,164.652,180.548z
				 M193.296,238.024H62.705v-25.832c0-15.794,12.849-28.644,28.643-28.644h5.034l20.336,26.965c0.499,0.661,1.438,0.793,2.1,0.295
				l9.788-7.369l9.788,7.369c0.662,0.498,1.602,0.366,2.1-0.295l20.337-26.965h3.822c15.794,0,28.644,12.85,28.644,28.644V238.024z"
				/>
		</g>
	</g>
	<g>
		<g>
			<path class="st0" d="M86.228,216.432c-0.829,0-1.5,0.671-1.5,1.5v21.589c0,0.829,0.671,1.5,1.5,1.5c0.829,0,1.5-0.671,1.5-1.5
				v-21.589C87.728,217.103,87.056,216.432,86.228,216.432z"/>
		</g>
	</g>
	<g>
		<g>
			<path class="st0" d="M170.989,216.432c-0.829,0-1.5,0.671-1.5,1.5v21.589c0,0.829,0.671,1.5,1.5,1.5c0.829,0,1.5-0.671,1.5-1.5
				v-21.589C172.489,217.103,171.818,216.432,170.989,216.432z"/>
		</g>
	</g>
	<g>
		<g>
			<polygon class="st26" points="133.721,219.331 123.455,219.331 120.34,239.524 136.836,239.524 			"/>
		</g>
	</g>
	<g>
		<g>
			<path class="st0" d="M138.318,239.295l-3.115-20.193c-0.113-0.731-0.742-1.271-1.482-1.271h-10.266
				c-0.74,0-1.37,0.54-1.482,1.271l-3.115,20.193c-0.067,0.433,0.059,0.873,0.344,1.205c0.285,0.332,0.701,0.523,1.139,0.523h16.496
				c0.438,0,0.854-0.191,1.139-0.523C138.26,240.168,138.385,239.728,138.318,239.295z M122.089,238.024l2.652-17.193h7.693
				l2.652,17.193H122.089z"/>
		</g>
	</g>
	<g>
		<g>
			<polygon class="st26" points="119.993,201.546 123.463,219.326 133.708,219.326 137.261,201.546 			"/>
		</g>
	</g>
	<g>
		<g>
			<path class="st0" d="M138.421,200.595c-0.285-0.347-0.711-0.549-1.16-0.549h-17.268c-0.448,0-0.873,0.2-1.158,0.546
				c-0.285,0.346-0.4,0.801-0.314,1.241l3.47,17.78c0.137,0.705,0.754,1.213,1.472,1.213h10.246c0.715,0,1.331-0.505,1.471-1.206
				l3.553-17.78C138.82,201.399,138.706,200.942,138.421,200.595z M132.479,217.826h-7.78l-2.884-14.78h13.618L132.479,217.826z"/>
		</g>
	</g>
	<g>
		<g>
			
				<rect x="106.21" y="174.628" transform="matrix(0.7986 -0.6019 0.6019 0.7986 -92.7116 106.603)" class="st4" width="13.441" height="34.407"/>
		</g>
	</g>
	<g>
		<g>
			<path class="st0" d="M129.85,200.623l-20.708-27.477c-0.499-0.662-1.439-0.794-2.101-0.295l-10.734,8.089
				c-0.318,0.239-0.527,0.595-0.583,0.989c-0.055,0.394,0.048,0.793,0.288,1.111l20.708,27.478c0.239,0.318,0.595,0.527,0.989,0.583
				c0.069,0.01,0.139,0.015,0.208,0.015c0.324,0,0.641-0.105,0.903-0.302l10.734-8.09c0.318-0.239,0.527-0.595,0.583-0.989
				C130.193,201.34,130.09,200.94,129.85,200.623z M118.213,207.515L99.31,182.433l8.339-6.284l18.902,25.082L118.213,207.515z"/>
		</g>
	</g>
	<g>
		<g>
			
				<rect x="127.083" y="185.111" transform="matrix(0.6019 -0.7986 0.7986 0.6019 -95.7511 191.604)" class="st4" width="34.407" height="13.441"/>
		</g>
	</g>
	<g>
		<g>
			<path class="st0" d="M161.492,181.929c-0.055-0.394-0.265-0.75-0.582-0.989l-10.734-8.089c-0.662-0.5-1.602-0.367-2.101,0.295
				l-20.708,27.477c-0.499,0.662-0.367,1.602,0.295,2.101l10.734,8.09c0.262,0.197,0.579,0.302,0.903,0.302
				c0.069,0,0.139-0.005,0.208-0.015c0.394-0.055,0.75-0.265,0.989-0.583l20.708-27.478
				C161.444,182.723,161.547,182.323,161.492,181.929z M139.004,207.515l-8.338-6.284l18.902-25.082l8.338,6.284L139.004,207.515z"
				/>
		</g>
	</g>
	<g>
		<g>
			<path class="st15" d="M192.109,59.476H64.891c-8.143,0-14.744,6.601-14.744,14.744v81.513c0,8.143,6.601,14.744,14.744,14.744
				h127.218c8.143,0,14.744-6.601,14.744-14.744V74.22C206.853,66.077,200.252,59.476,192.109,59.476z"/>
		</g>
	</g>
	<g>
		<g>
			<path class="st0" d="M192.109,57.977H64.891c-8.956,0-16.244,7.287-16.244,16.244v81.512c0,8.957,7.287,16.244,16.244,16.244
				h127.219c8.957,0,16.244-7.287,16.244-16.244V74.22C208.353,65.263,201.066,57.977,192.109,57.977z M205.353,155.732
				c0,7.303-5.941,13.244-13.244,13.244H64.891c-7.303,0-13.244-5.941-13.244-13.244V74.22c0-7.303,5.941-13.244,13.244-13.244
				h127.219c7.303,0,13.244,5.941,13.244,13.244V155.732z"/>
		</g>
	</g>
	<g>
		<g>
			<path class="st4" d="M170.472,35.476h-49.941h-13.73H85.528c-8.121,0-14.704,6.583-14.704,14.704v9.296h114.353V50.18
				C185.177,42.06,178.593,35.476,170.472,35.476z"/>
		</g>
	</g>
	<g>
		<g>
			<path class="st0" d="M170.472,33.976h-49.94c-0.829,0-1.5,0.671-1.5,1.5c0,0.829,0.671,1.5,1.5,1.5h49.94
				c7.281,0,13.204,5.923,13.204,13.205v7.796H72.324v-7.796c0-7.281,5.923-13.205,13.204-13.205h21.274c0.829,0,1.5-0.671,1.5-1.5
				c0-0.829-0.671-1.5-1.5-1.5H85.528c-8.935,0-16.204,7.27-16.204,16.205v9.296c0,0.829,0.671,1.5,1.5,1.5h114.353
				c0.829,0,1.5-0.671,1.5-1.5v-9.296C186.676,41.246,179.407,33.976,170.472,33.976z"/>
		</g>
	</g>
	<g>
		<g>
			<path class="st4" d="M155.799,126.476h-55.599c-3.749,0-6.789,3.04-6.789,6.789v10.422c0,3.749,3.039,6.789,6.789,6.789h55.599
				c3.749,0,6.789-3.039,6.789-6.789v-10.422C162.588,129.516,159.549,126.476,155.799,126.476z"/>
		</g>
	</g>
	<g>
		<g>
			<path class="st0" d="M155.799,124.976h-55.599c-4.571,0-8.289,3.718-8.289,8.289v10.422c0,4.57,3.718,8.289,8.289,8.289h55.599
				c4.571,0,8.289-3.718,8.289-8.289v-10.422C164.088,128.694,160.37,124.976,155.799,124.976z M161.088,143.688
				c0,2.916-2.373,5.289-5.289,5.289h-55.599c-2.917,0-5.289-2.373-5.289-5.289v-10.422c0-2.917,2.373-5.289,5.289-5.289h55.599
				c2.917,0,5.289,2.372,5.289,5.289V143.688z"/>
		</g>
	</g>
	<g>
		<g>
			<circle class="st4" cx="103" cy="99.476" r="11"/>
		</g>
	</g>
	<g>
		<g>
			<path class="st0" d="M103,86.976c-6.893,0-12.5,5.607-12.5,12.5c0,6.893,5.607,12.5,12.5,12.5c6.893,0,12.5-5.607,12.5-12.5
				C115.5,92.583,109.893,86.976,103,86.976z M103,108.976c-5.238,0-9.5-4.262-9.5-9.5s4.262-9.5,9.5-9.5c5.238,0,9.5,4.262,9.5,9.5
				S108.238,108.976,103,108.976z"/>
		</g>
	</g>
	<g>
		<g>
			<circle class="st4" cx="153" cy="99.476" r="11"/>
		</g>
	</g>
	<g>
		<g>
			<path class="st0" d="M153,86.976c-6.893,0-12.5,5.607-12.5,12.5c0,6.893,5.607,12.5,12.5,12.5s12.5-5.607,12.5-12.5
				C165.5,92.583,159.893,86.976,153,86.976z M153,108.976c-5.238,0-9.5-4.262-9.5-9.5s4.262-9.5,9.5-9.5s9.5,4.262,9.5,9.5
				S158.238,108.976,153,108.976z"/>
		</g>
	</g>
	<g>
		<g>
			<circle class="st3" cx="201.5" cy="201.521" r="38"/>
		</g>
	</g>
	<g>
		<g>
			<path class="st0" d="M201.5,162.021c-21.78,0-39.5,17.72-39.5,39.5c0,21.78,17.72,39.5,39.5,39.5s39.5-17.72,39.5-39.5
				C241,179.741,223.28,162.021,201.5,162.021z M201.5,238.021c-20.126,0-36.5-16.374-36.5-36.5c0-20.127,16.374-36.5,36.5-36.5
				s36.5,16.374,36.5,36.5C238,221.647,221.626,238.021,201.5,238.021z"/>
		</g>
	</g>
	<g>
		<g>
			<path class="st4" d="M206.018,197.224c-5.534-2.083-7.814-3.45-7.814-5.599c0-1.822,1.367-3.646,5.6-3.646
				c4.687,0,7.683,1.497,9.375,2.214l1.888-7.357c-2.149-1.042-5.079-1.955-9.441-2.149v-5.73h-6.381v6.185
				c-6.967,1.367-11.003,5.86-11.003,11.59c0,6.316,4.753,9.572,11.72,11.915c4.818,1.628,6.902,3.191,6.902,5.664
				c0,2.605-2.54,4.037-6.25,4.037c-4.232,0-8.073-1.367-10.808-2.864l-1.953,7.617c2.474,1.432,6.706,2.604,11.068,2.799v6.185
				h6.381v-6.641c7.488-1.301,11.59-6.25,11.59-12.045C216.891,203.54,213.765,199.959,206.018,197.224z"/>
		</g>
	</g>
	<g>
		<g>
			<path class="st0" d="M206.546,195.82c-4.924-1.853-6.842-3.029-6.842-4.195c0-1.867,2.569-2.146,4.1-2.146
				c3.965,0,6.576,1.134,8.304,1.885l0.487,0.21c0.403,0.17,0.859,0.157,1.25-0.037c0.392-0.193,0.679-0.548,0.788-0.971
				l1.888-7.356c0.177-0.691-0.157-1.412-0.799-1.723c-2.477-1.201-5.3-1.927-8.595-2.206v-4.323c0-0.829-0.671-1.5-1.5-1.5h-6.38
				c-0.829,0-1.5,0.671-1.5,1.5v4.987c-6.821,1.757-11.003,6.57-11.003,12.788c0,8.023,6.809,11.341,12.739,13.336
				c5.169,1.747,5.882,3.072,5.882,4.243c0,2.415-3.957,2.537-4.751,2.537c-4.517,0-8.26-1.679-10.088-2.68
				c-0.407-0.223-0.893-0.245-1.317-0.06c-0.425,0.185-0.741,0.555-0.856,1.003l-1.953,7.617c-0.167,0.651,0.12,1.334,0.702,1.671
				c2.546,1.474,6.401,2.547,10.319,2.902v4.784c0,0.829,0.671,1.5,1.5,1.5h6.381c0.829,0,1.5-0.671,1.5-1.5v-5.418
				c7.084-1.68,11.59-6.78,11.59-13.268C218.391,202.812,214.84,198.748,206.546,195.82z M205.044,219.966
				c-0.719,0.125-1.243,0.748-1.243,1.478v5.141h-3.381V221.9c0-0.802-0.631-1.462-1.433-1.499
				c-3.389-0.152-6.927-0.949-9.385-2.084l1.196-4.667c2.324,1.047,5.793,2.197,9.815,2.197c4.708,0,7.751-2.173,7.751-5.537
				c0-3.875-3.807-5.695-7.924-7.086c-7.498-2.522-10.697-5.66-10.697-10.493c0-5.132,3.661-8.914,9.792-10.119
				c0.704-0.138,1.211-0.755,1.211-1.472v-4.685h3.38v4.23c0,0.802,0.631,1.463,1.433,1.498c2.987,0.133,5.533,0.628,7.739,1.509
				l-1.138,4.434c-1.877-0.761-4.613-1.649-8.356-1.649c-5.235,0-7.1,2.658-7.1,5.146c0,3.424,3.808,5.129,8.815,7.014
				c8.194,2.893,9.872,6.393,9.872,10.761C215.391,214.809,211.426,218.857,205.044,219.966z"/>
		</g>
	</g>
	<g>
		<g>
			<path class="st14" d="M170.47,36.976h-9.52c4.87,2.39,8.23,7.4,8.23,13.2v7.8h14.5v-7.8
				C183.68,42.896,177.75,36.976,170.47,36.976z"/>
		</g>
	</g>
	<g>
		<g>
			<path class="st6" d="M192.11,60.976h-9.51c4.89,2.4,8.25,7.43,8.25,13.24v81.52c0,3.23-1.04,6.22-2.81,8.65
				c4.2-1.53,8.74-2.37,13.46-2.37c0.75,0,1.49,0.03,2.22,0.07c1.04-1.89,1.63-4.05,1.63-6.35v-81.52
				C205.35,66.916,199.41,60.976,192.11,60.976z"/>
		</g>
	</g>
</g>
</svg>
