<svg width="551" height="337" viewBox="0 0 551 337" fill="none" xmlns="http://www.w3.org/2000/svg">
<path d="M171 104.087L241.276 34.2826L262.358 54.9348L213.165 104.087L276 166.87L326.02 117.717L346.689 138.783L276 209L171 104.087Z" fill="#2DD4BF"/>
<path d="M276 40.8913L255.331 20.6522L276 0L296.669 20.6522L276 40.8913Z" fill="#2DD4BF"/>
<path d="M310.311 34.2826L288.815 54.9348L360.331 125.152L381 104.087L310.311 34.2826Z" fill="#2DD4BF"/>
<path d="M24.136 337L0.584 242.28H20.296L37.064 311.016L54.6 242.28H74.696L92.232 310.888L108.872 242.28H128.712L105.032 337H79.944L64.584 276.712L49.352 337H24.136ZM126.09 337L158.346 242.28H184.586L216.842 337H196.106L190.09 318.44H152.97L146.826 337H126.09ZM158.474 301.288H184.586L171.53 261.736L158.474 301.288ZM229.329 337V242.28H249.041V319.848H295.377V337H229.329ZM311.579 337V242.28H331.291V319.848H377.627V337H311.579ZM393.829 337V242.28H459.109V259.432H413.541V280.68H453.221V297.192H413.541V319.848H459.749V337H393.829ZM501.298 337V259.432H472.242V242.28H550.066V259.432H521.01V337H501.298Z" fill="#2DD4BF"/>
</svg>
